Coordinates
version=1
nRows=17
nColumns=36
inDegrees=yes

Units are S.I. units (second, meters, Newtons, ...)
If the header above contains a line with 'inDegrees', this indicates whether rotational values are in degrees (yes) or radians (no).

endheader
time	pelvis_tilt	pelvis_list	pelvis_rotation	pelvis_tx	pelvis_ty	pelvis_tz	hip_flexion_r	hip_adduction_r	hip_rotation_r	knee_angle_r	knee_angle_r_beta	ankle_angle_r	subtalar_angle_r	mtp_angle_r	hip_flexion_l	hip_adduction_l	hip_rotation_l	knee_angle_l	knee_angle_l_beta	ankle_angle_l	subtalar_angle_l	mtp_angle_l	lumbar_extension	lumbar_bending	lumbar_rotation	arm_flex_r	arm_add_r	arm_rot_r	elbow_flex_r	pro_sup_r	arm_flex_l	arm_add_l	arm_rot_l	elbow_flex_l	pro_sup_l
      2.97916670	     -1.81850125	      0.98739829	      2.29380510	      0.08997747	      0.97537788	     -0.06809934	     19.79951943	     -7.86808927	     -1.31236856	     13.05334359	      0.22782382	    -22.13508471	      2.72495454	     -7.49999987	     24.55588546	     -3.66873187	     -9.52554072	     17.45648053	      0.30467306	    -24.43666106	     10.04584013	     -7.49999987	    -12.20119113	      3.57644238	      1.42540722	    -55.29818552	    -28.02447943	    -32.24008656	    108.09382154	     76.39333503	    -63.74756233	    -42.54036347	    -55.87598573	    126.88579062	     83.74701740
      2.98333330	     -1.43319884	      0.87077291	      2.27761729	      0.09667720	      0.96083964	     -0.06864423	     19.77792389	     -7.80468673	     -0.87586203	     13.79376792	      0.24074667	    -21.66927006	      1.99417708	     -7.49999987	     24.68128131	     -3.79437757	     -9.39128522	     18.32671318	      0.31986149	    -23.81672353	      9.97596084	     -7.49999987	    -12.47754243	      3.73898159	      1.34457052	    -54.84941671	    -27.50046858	    -32.17655419	    107.21627744	     75.28061687	    -62.94647975	    -41.64046257	    -54.62983521	    126.20634665	     82.25437814
      2.98750000	     -1.02783460	      0.70646098	      2.24927245	      0.10094662	      0.95311412	     -0.06648812	     19.86532060	     -7.53908118	     -0.03816935	     15.03517676	      0.26241334	    -20.44300552	      0.67028890	     -7.49999987	     24.81764020	     -4.04825488	     -9.71895871	     19.26742594	      0.33628002	    -23.24504545	      9.33959042	     -7.49999987	    -12.86739005	      3.85221951	      1.11748812	    -53.70392639	    -27.01650772	    -31.79698378	    105.83886041	     77.94529233	    -61.83468277	    -40.45305819	    -53.70033800	    125.01245331	     86.58173479
      2.99166670	     -0.68235098	      0.61646491	      2.61450260	      0.10849564	      0.94111298	     -0.06643791	     20.15002263	     -7.32325389	      1.23140644	     16.79421853	      0.29311441	    -17.57178390	      0.45864550	     -7.49999987	     25.30152809	     -4.23137239	     -9.59708258	     20.62799937	      0.36002651	    -22.23213597	      8.61720918	     -7.49999987	    -13.11160500	      3.78807633	      0.70288185	    -52.64616892	    -26.29490256	    -31.05333556	    104.19371153	     76.29220675	    -60.57466803	    -40.35483147	    -51.68232736	    123.82964400	     84.23157641
      2.99583330	     -0.79859459	      0.33581889	      2.84835043	      0.11472891	      0.92682109	     -0.06703348	     21.10801888	     -6.97932855	      2.51003189	     19.21909184	      0.33543643	    -13.16296409	     -0.30136124	     -7.49999987	     26.43588337	     -4.51296219	     -9.60874670	     22.86123086	      0.39900375	    -19.14208602	      7.25666242	     -7.49999987	    -12.79221361	      3.96583279	      0.51285666	    -51.83242536	    -25.49501763	    -30.72885969	    102.75753660	     74.75481344	    -59.41318325	    -38.87401770	    -50.01453451	    122.91090631	     82.02129906
      3.00000000	     -0.67940954	      0.24935248	      2.95416506	      0.11824475	      0.91896049	     -0.06723501	     21.79707976	     -6.77551933	      3.50094247	     21.74090168	      0.37945032	     -8.47466367	     -1.13817746	     -7.49999987	     27.34870015	     -4.63545007	     -9.68118780	     25.50736720	      0.44518754	    -15.21458614	      6.40779545	     -7.49999987	    -13.05546771	      3.85536230	      0.00571918	    -50.44728573	    -24.98130148	    -29.78176685	    100.60272171	     74.57887608	    -56.97285754	    -37.63557084	    -48.95490752	    121.42507253	     81.91542981
      3.00416670	     -0.86953352	      0.39848416	      2.71095482	      0.12216466	      0.90837541	     -0.06695522	     23.05029244	     -6.75389674	      4.20385246	     24.52708765	      0.42807844	     -3.86176062	     -2.79414832	     -7.49999987	     28.50628568	     -4.50769576	     -8.67288531	     28.43511480	      0.49628638	    -10.69083125	      5.72104216	     -7.49999987	    -12.92719873	      3.38573040	     -0.72543197	    -48.42995887	    -25.26893700	    -28.27900168	     98.30125689	     77.47808347	    -56.21780107	    -34.91107555	    -49.04456334	    120.19218378	     86.85511868
      3.00833330	     -1.22298148	      0.65476739	      2.73553752	      0.12819358	      0.89527711	     -0.06679673	     24.26058517	     -6.97750615	      5.00160362	     27.41118641	      0.47841545	      0.81367451	     -4.13739126	     -7.49999987	     30.03064336	     -4.13726990	     -7.44879856	     32.00707394	      0.55862882	     -6.49303408	      3.89960438	     -7.49999987	    -12.40278104	      3.15420884	     -1.04412630	    -47.48228613	    -24.67494707	    -27.62899657	     96.66750866	     75.87437091	    -54.78031369	    -33.96527474	    -47.66819344	    117.64318505	     84.33927426
      3.01250000	     -1.25938318	      0.72093268	      2.60138250	      0.13168612	      0.88582634	     -0.06668909	     25.26015408	     -6.85558915	      5.97138962	     30.33804206	      0.52949872	      4.77253138	     -5.64221976	     -7.49999987	     30.86855510	     -4.02029039	     -6.79698191	     35.15877064	      0.61363631	     -1.32083757	      3.18618638	     -7.49999987	    -12.28568648	      3.00503017	     -0.86115150	    -46.32291099	    -24.51105513	    -26.48068788	     94.44931975	     75.04956788	    -53.21752074	    -33.16030634	    -45.77907039	    116.38635237	     83.08754881
      3.01666670	     -1.61832683	      0.61528120	      2.37106092	      0.13684157	      0.87105798	     -0.06583958	     26.95921347	     -6.34931000	      6.74285166	     33.95995191	      0.59271297	      8.79739125	     -6.98053931	     -7.49999987	     32.26964056	     -4.10221716	     -5.56004501	     38.44900154	      0.67106167	      3.31050842	      1.49694766	     -7.49999987	    -11.79275980	      3.08593139	     -0.70554062	    -45.50972037	    -24.09415585	    -25.58286657	     92.96061218	     74.10838709	    -52.45424019	    -31.78703808	    -44.33011042	    114.96716595	     81.60517366
      3.02083330	     -2.00083275	      0.48907026	      2.13325224	      0.14028806	      0.86524158	     -0.06542881	     28.68615755	     -5.82939416	      7.19977968	     37.30891081	      0.65116333	     11.36327801	     -8.54398122	     -7.49999987	     33.27679447	     -4.04954434	     -4.49073044	     40.70361294	      0.71041206	      6.91906116	      0.22300254	     -7.49999987	    -11.43611692	      3.14303565	     -0.61655268	    -43.84067104	    -23.64457193	    -24.60941128	     91.00684339	     73.06331521	    -51.28451865	    -30.50555463	    -42.52737416	    113.13320177	     80.37383727
      3.02500000	     -2.27325239	      0.22098884	      1.94635694	      0.14604433	      0.85238455	     -0.06666054	     30.58291122	     -5.45122113	      7.26044732	     41.07910181	      0.71696558	     13.88529802	     -9.39416946	     -7.49999987	     34.41528302	     -4.16188749	     -3.72310538	     43.35092973	      0.75661646	     10.80123684	     -0.60428039	     -7.49999987	    -11.06960573	      3.40107034	     -0.67106512	    -42.36221916	    -23.92665525	    -22.57078569	     88.34691122	     73.17889807	    -50.19888691	    -29.65662314	    -40.23850841	    111.00010966	     80.50670720
      3.02916670	     -2.60831128	      0.22509421	      1.92190615	      0.14599731	      0.84659331	     -0.06838741	     32.63704848	     -5.42848908	      7.48196009	     44.51985094	      0.77701798	     15.44569822	    -10.32039141	     -7.49999987	     35.65295073	     -3.74072688	     -2.62027274	     45.59262967	      0.79574150	     12.92345433	     -1.96364078	     -7.49999987	    -11.02850855	      3.60408530	     -0.92259154	    -40.79786122	    -23.33940857	    -21.77387511	     86.76728535	     71.73922902	    -48.27984856	    -28.20587790	    -38.46803882	    108.34066767	     78.49947222
      3.03333330	     -2.66360559	      0.28896447	      1.76017187	      0.14901268	      0.83694135	     -0.06730841	     34.38056317	     -5.35117163	      7.77915836	     47.77982243	      0.83391522	     16.55574810	    -11.05956835	     -7.49999987	     36.72314097	     -3.56141907	     -1.93580675	     48.04928844	      0.83861829	     15.46844734	     -2.42289673	     -7.49999987	    -11.24449904	      3.72866628	     -0.72636277	    -38.87707051	    -23.10947366	    -20.56881709	     83.99277371	     77.08905879	    -45.55483319	    -27.42641885	    -36.59574130	    104.94150552	     86.49280610
      3.03750000	     -2.31618343	      0.36030391	      1.94168736	      0.15106453	      0.82503126	     -0.06488868	     35.90525140	     -5.38140753	      7.95287540	     51.60998702	      0.90076420	     17.99680083	    -11.77201385	     -7.49999987	     37.98190262	     -3.37973140	     -1.03900746	     51.34010276	      0.89605383	     17.12180615	     -3.55345502	     -7.49999987	    -12.22397889	      3.72188352	     -1.02557590	    -37.17194312	    -22.36685100	    -19.86762439	     83.06076893	     76.26847765	    -43.61087953	    -26.42896088	    -35.44628356	    103.00130405	     85.16204204
      3.04166670	     -2.89682775	      0.25422088	      2.03794423	      0.15116966	      0.81821739	     -0.06611601	     38.22257900	     -5.35368773	      7.98663271	     54.72860628	      0.95519437	     19.30327767	    -11.44583971	     -7.49999987	     40.37564517	     -3.23293966	     -0.22167916	     54.74364016	      0.95545677	     18.84313674	     -4.39409779	     -7.49999987	    -11.62082569	      3.91752855	     -0.87398552	    -35.74218514	    -21.86195353	    -18.77897333	     80.59677091	     74.86735548	    -41.10039047	    -25.66477839	    -33.65912739	     99.50116060	     83.61064560
      3.04583330	     -2.88004491	      0.32417412	      2.20609679	      0.15407564	      0.80935728	     -0.06712663	     39.68763134	     -5.67546041	      7.89350281	     57.66027026	      1.00636156	     20.80806039	    -10.35759801	     -7.49999987	     41.92573277	     -2.74139702	      0.50387808	     57.71892434	      1.00738527	     19.97286570	     -5.56658810	     -7.49999987	    -11.86051574	      4.08184033	     -0.28400623	    -34.85255348	    -20.58434101	    -19.28560158	     79.28191836	     76.67524236	    -37.78405497	    -26.01127439	    -30.55007695	     96.03429238	     85.18348956
